# xmcd
#
# Track frame offsets:
#	150
#	19927
#	42964
#	58970
#	73305
#	91198
#	108438
#	124475
#	138968
#	154206
#	169936
#	183208
#	195948
#	210484
#	224393
#	239473
#	250327
#	262783
#	276986
#	292597
#	307190
#
# Disc length: 4302 seconds
#
# Revision: 0
# Processed by: cddbd v1.4PL0 Copyright (c) Steve Scherf et al.
# Submitted via: dBpowerAMP V4.0
#
DISCID=3c10cc15
DTITLE=IVAN CRUZ - Coleccion de Oro
DYEAR=1900
DGENRE=Ballad
TTITLE0=Ivan Cruz   - Le Doy Gracias A Dios
TTITLE1=Ivan Cruz   - Ajena
TTITLE2=Ivan Cruz   - Penas
TTITLE3=Ivan Cruz   - Yo Soy Vagabundo
TTITLE4=Ivan Cruz   - Mozo Dame Otra Copa
TTITLE5=Ivan Cruz   - Brindo
TTITLE6=Ivan Cruz   - Se Que Me Enganaste Un  Dia
TTITLE7=Ivan Cruz   - Miseria De Amor
TTITLE8=Ivan Cruz   - Me Dices Que Te Vas
TTITLE9=Ivan Cruz   - Ficha Marcada
TTITLE10=Ivan Cruz   - Dime La Verdad
TTITLE11=Ivan Cruz   - Ya Te conozco
TTITLE12=Ivan Cruz   - Senor Magistrado
TTITLE13=Ivan Cruz   - Te Vi Con El
TTITLE14=Ivan cruz   - Por Un Punado De Oro
TTITLE15=Ivan Cruz   - Me voy te Dejo ( Solo Te Digo A Dios )
TTITLE16=Ivan Cruz   - Aun No Pierdo La Esperanza
TTITLE17=Ivan cruz   - A Media Noche
TTITLE18=Ivan Cruz  - Te extrano
TTITLE19=Ivan cruz  - te Quiero Pero Me Arrepiento
TTITLE20=Ivan cruz  - no renunciare
EXTD=Musica de cantina
EXTT0=
EXTT1=
EXTT2=
EXTT3=
EXTT4=
EXTT5=
EXTT6=
EXTT7=
EXTT8=
EXTT9=
EXTT10=
EXTT11=
EXTT12=
EXTT13=
EXTT14=
EXTT15=
EXTT16=
EXTT17=
EXTT18=
EXTT19=
EXTT20=
PLAYORDER=
